<svg width="320" height="77" viewBox="0 0 320 77" fill="none" xmlns="http://www.w3.org/2000/svg">
<path d="M36.6691 18.2958C37.4151 14.7147 42.529 14.7146 43.2751 18.2957L55.4332 76.6495H24.5131L36.6691 18.2958Z" fill="url(#paint0_linear_2_9326)"/>
<path d="M29.6957 58.499C26.9108 60.8707 22.8707 57.7355 24.4768 54.449L50.6482 0.894853L75.0754 19.8518L29.6957 58.499Z" fill="url(#paint1_linear_2_9326)"/>
<path d="M55.6691 54.2456C57.2881 57.5258 53.2605 60.677 50.4662 58.3163L4.93371 19.8484L29.2864 0.795884L55.6691 54.2456Z" fill="url(#paint2_linear_2_9326)"/>
<path d="M59.3962 30.3145C63.0413 30.0075 64.5008 34.9088 61.2816 36.6458L8.82404 64.9512L0.000123431 35.3169L59.3962 30.3145Z" fill="url(#paint3_linear_2_9326)"/>
<path d="M18.7057 36.3572C15.5105 34.5765 17.0365 29.6956 20.6771 30.0522L80.0001 35.863L70.7724 65.3741L18.7057 36.3572Z" fill="url(#paint4_linear_2_9326)"/>
<path d="M90.1678 17.0553C89.2861 17.0553 88.7251 17.643 88.7251 18.4712V56.3543C88.7251 57.2092 89.3396 57.8237 90.1678 57.8237H93.721C94.4957 57.8237 95.1369 57.236 95.1369 56.3543V44.1986H110.846C111.701 44.1986 112.369 43.6643 112.369 42.8361V39.5501C112.369 38.7219 111.781 38.1875 110.953 38.1875H95.1369V23.3602H112.823C113.678 23.3602 114.239 22.7725 114.239 21.9443V18.5514C114.239 17.6698 113.651 17.0553 112.823 17.0553H90.1678Z" fill="black"/>
<path d="M128.398 29.4782C124.311 29.4782 121.025 30.7071 118.54 33.1917C117.952 33.6993 117.926 34.287 118.487 34.9015L120.41 37.1991C120.864 37.7601 121.372 37.8135 121.933 37.3594C124.097 35.6495 126.288 34.7946 128.505 34.7946C132.753 34.7946 134.97 37.0388 134.97 40.7523H129.6C124.124 40.7256 120.33 41.4736 118.219 43.0498C116.109 44.6261 115.04 46.8168 115.04 49.6754C115.04 52.534 116.082 54.7514 118.139 56.3811C120.196 58.0107 122.895 58.8122 126.207 58.8122C130.001 58.8122 132.94 57.3962 135.024 54.5377V56.7818C135.024 57.4764 135.344 57.8237 136.012 57.8237H139.779C140.5 57.8237 140.874 57.423 140.874 56.6215V40.7523C140.874 37.0388 139.699 34.2069 137.348 32.3101C134.997 30.4132 132.005 29.4782 128.398 29.4782ZM127.463 53.5492C123.295 53.5492 121.051 52.0531 121.051 49.4082C121.078 46.7633 123.402 45.4543 128.078 45.4543H134.97C134.97 50.4768 132.272 53.5492 127.463 53.5492Z" fill="black"/>
<path d="M176.113 29.5316C172.506 29.5316 169.701 31.0811 167.724 34.1802C166.361 31.0811 163.797 29.5316 160.03 29.5316C156.664 29.5316 154.099 31.1078 152.309 34.2336V31.7757C152.309 30.8941 151.881 30.4667 151.053 30.4667H147.607C146.779 30.4667 146.351 30.8941 146.351 31.7757V56.5681C146.351 57.3963 146.779 57.8237 147.607 57.8237H151.053C151.881 57.8237 152.309 57.3963 152.309 56.5681V41.7408C152.309 37.5731 154.339 34.9549 157.625 34.9549C161.392 34.9549 162.808 37.0922 162.808 41.1797V56.6215C162.808 57.2627 163.369 57.8237 164.01 57.8237H167.51C168.258 57.8237 168.766 57.2894 168.766 56.7284V42.2216C168.766 37.7601 170.796 34.9549 174.136 34.9549C177.342 34.9549 178.945 37.0388 178.945 41.1797V56.6749C178.945 57.4497 179.319 57.8237 180.093 57.8237H183.647C184.475 57.8237 184.902 57.3963 184.902 56.5681V39.4432C184.902 36.4777 184.181 34.1 182.738 32.2566C181.269 30.4399 179.078 29.5316 176.113 29.5316Z" fill="black"/>
<path d="M203.817 29.4782C199.436 29.4782 195.909 30.8941 193.264 33.6993C190.619 36.5044 189.284 39.9775 189.284 44.0918C189.284 48.206 190.7 51.6791 193.558 54.5377C196.39 57.3962 200.077 58.8122 204.645 58.8122C208.492 58.8122 211.671 57.7703 214.183 55.6864C214.771 55.1521 214.851 54.6178 214.397 54.0568L212.687 51.4119C212.286 50.744 211.778 50.6639 211.11 51.1447C209.107 52.6141 206.943 53.3354 204.645 53.3354C202.027 53.3354 199.97 52.721 198.474 51.4653C196.951 50.2097 196.016 48.7136 195.669 46.9771H216.133C217.068 46.9771 217.549 46.4962 217.549 45.5077C217.549 40.6187 216.24 36.7449 213.622 33.8329C210.977 30.9208 207.718 29.4782 203.817 29.4782ZM203.764 34.9015C205.66 34.9015 207.344 35.516 208.813 36.7182C210.282 37.9471 211.164 39.7371 211.484 42.0613H195.348C196.069 37.3861 199.088 34.9015 203.764 34.9015Z" fill="black"/>
<path d="M238.735 30.1995C238.254 30.1995 237.88 30.4667 237.639 31.001L230.853 46.2825L224.682 31.7223C224.308 30.8941 223.8 30.4667 223.133 30.4667H218.377C217.469 30.4667 217.228 30.8941 217.683 31.7223L229.865 57.61C230.052 58.0107 230.426 58.1977 230.934 58.2244C231.441 58.2244 231.789 57.984 232.002 57.5031L238.628 40.966L245.788 57.61C245.975 58.0107 246.322 58.1977 246.83 58.1977C247.31 58.2244 247.684 57.984 247.925 57.5031L259.733 31.6689C260.187 30.8674 259.92 30.4667 258.985 30.4667H254.604C253.936 30.4667 253.428 30.8941 253.081 31.7223L246.83 46.4427L239.83 31.001C239.616 30.4667 239.242 30.1995 238.735 30.1995Z" fill="black"/>
<path d="M273.786 29.4782C269.698 29.4782 266.412 30.7071 263.928 33.1917C263.34 33.6993 263.313 34.287 263.874 34.9015L265.798 37.1991C266.252 37.7601 266.76 37.8135 267.321 37.3594C269.485 35.6495 271.675 34.7946 273.893 34.7946C278.141 34.7946 280.358 37.0388 280.358 40.7523H274.988C269.511 40.7256 265.718 41.4736 263.607 43.0498C261.497 44.6261 260.428 46.8168 260.428 49.6754C260.428 52.534 261.47 54.7514 263.527 56.3811C265.584 58.0107 268.282 58.8122 271.595 58.8122C275.389 58.8122 278.328 57.3962 280.411 54.5377V56.7818C280.411 57.4764 280.732 57.8237 281.4 57.8237H285.167C285.888 57.8237 286.262 57.423 286.262 56.6215V40.7523C286.262 37.0388 285.087 34.2069 282.736 32.3101C280.385 30.4132 277.393 29.4782 273.786 29.4782ZM272.851 53.5492C268.683 53.5492 266.439 52.0531 266.439 49.4082C266.466 46.7633 268.79 45.4543 273.465 45.4543H280.358C280.358 50.4768 277.66 53.5492 272.851 53.5492Z" fill="black"/>
<path d="M314.661 30.4667C313.886 30.4667 313.325 30.8941 312.978 31.7223L304.108 51.6523L296.067 31.7223C295.693 30.8941 295.132 30.4667 294.357 30.4667H289.949C289.014 30.4667 288.773 30.8941 289.228 31.7223L300.715 58.2512L292.674 73.8532C292.247 74.6814 292.567 75.2157 293.395 75.2157H297.59C298.418 75.2157 299.006 74.8417 299.353 74.067L309.024 53.8965L319.764 31.7223C320.165 30.8941 319.897 30.4667 318.989 30.4667H314.661Z" fill="black"/>
<defs>
<linearGradient id="paint0_linear_2_9326" x1="39.9731" y1="15.6099" x2="39.9731" y2="76.6495" gradientUnits="userSpaceOnUse">
<stop stop-color="#FFCF26"/>
<stop offset="1" stop-color="#FFCF26" stop-opacity="0"/>
</linearGradient>
<linearGradient id="paint1_linear_2_9326" x1="25.4388" y1="58.5952" x2="62.8618" y2="10.3733" gradientUnits="userSpaceOnUse">
<stop stop-color="#FFCF26"/>
<stop offset="1" stop-color="#FFCF26" stop-opacity="0"/>
</linearGradient>
<linearGradient id="paint2_linear_2_9326" x1="54.7218" y1="58.3969" x2="17.1101" y2="10.3222" gradientUnits="userSpaceOnUse">
<stop stop-color="#FFCF26"/>
<stop offset="1" stop-color="#FFCF26" stop-opacity="0"/>
</linearGradient>
<linearGradient id="paint3_linear_2_9326" x1="62.9133" y1="32.7147" x2="4.41209" y2="50.134" gradientUnits="userSpaceOnUse">
<stop stop-color="#FFCF26"/>
<stop offset="1" stop-color="#FFCF26" stop-opacity="0"/>
</linearGradient>
<linearGradient id="paint4_linear_2_9326" x1="17.1283" y1="32.4022" x2="75.3863" y2="50.6186" gradientUnits="userSpaceOnUse">
<stop stop-color="#FFCF26"/>
<stop offset="1" stop-color="#FFCF26" stop-opacity="0"/>
</linearGradient>
</defs>
</svg>
