<svg width="320" height="80" viewBox="0 0 320 80" fill="none" xmlns="http://www.w3.org/2000/svg">
<path d="M36.6691 19.2958C37.4151 15.7147 42.529 15.7146 43.2751 19.2957L55.4332 77.6495H24.5131L36.6691 19.2958Z" fill="url(#paint0_linear_2_9334)"/>
<path d="M29.6957 59.499C26.9108 61.8707 22.8707 58.7355 24.4768 55.449L50.6482 1.89488L75.0754 20.8518L29.6957 59.499Z" fill="url(#paint1_linear_2_9334)"/>
<path d="M55.6691 55.2457C57.2881 58.5258 53.2605 61.677 50.4662 59.3163L4.93371 20.8485L29.2864 1.79591L55.6691 55.2457Z" fill="url(#paint2_linear_2_9334)"/>
<path d="M59.3962 31.3146C63.0413 31.0076 64.5008 35.9088 61.2816 37.6459L8.82404 65.9512L0.000123431 36.3169L59.3962 31.3146Z" fill="url(#paint3_linear_2_9334)"/>
<path d="M18.7057 37.3573C15.5105 35.5765 17.0365 30.6956 20.6771 31.0522L80.0001 36.8631L70.7724 66.3741L18.7057 37.3573Z" fill="url(#paint4_linear_2_9334)"/>
<path d="M90.1678 18.0553C89.2861 18.0553 88.7251 18.6431 88.7251 19.4713V57.3544C88.7251 58.2093 89.3396 58.8237 90.1678 58.8237H93.721C94.4957 58.8237 95.1369 58.236 95.1369 57.3544V45.1986H110.846C111.701 45.1986 112.369 44.6643 112.369 43.8361V40.5501C112.369 39.7219 111.781 39.1876 110.953 39.1876H95.1369V24.3603H112.823C113.678 24.3603 114.239 23.7725 114.239 22.9443V19.5514C114.239 18.6698 113.651 18.0553 112.823 18.0553H90.1678Z" fill="white"/>
<path d="M128.398 30.4782C124.311 30.4782 121.025 31.7071 118.54 34.1917C117.952 34.6993 117.926 35.2871 118.487 35.9015L120.41 38.1991C120.864 38.7601 121.372 38.8136 121.933 38.3594C124.097 36.6496 126.288 35.7947 128.505 35.7947C132.753 35.7947 134.97 38.0388 134.97 41.7523H129.6C124.124 41.7256 120.33 42.4736 118.219 44.0499C116.109 45.6261 115.04 47.8168 115.04 50.6754C115.04 53.534 116.082 55.7514 118.139 57.3811C120.196 59.0107 122.895 59.8122 126.207 59.8122C130.001 59.8122 132.94 58.3963 135.024 55.5377V57.7818C135.024 58.4764 135.344 58.8237 136.012 58.8237H139.779C140.5 58.8237 140.874 58.423 140.874 57.6215V41.7523C140.874 38.0388 139.699 35.2069 137.348 33.3101C134.997 31.4133 132.005 30.4782 128.398 30.4782ZM127.463 54.5492C123.295 54.5492 121.051 53.0531 121.051 50.4082C121.078 47.7634 123.402 46.4543 128.078 46.4543H134.97C134.97 51.4769 132.272 54.5492 127.463 54.5492Z" fill="white"/>
<path d="M176.113 30.5316C172.506 30.5316 169.701 32.0812 167.724 35.1802C166.361 32.0812 163.797 30.5316 160.03 30.5316C156.664 30.5316 154.099 32.1079 152.309 35.2336V32.7758C152.309 31.8941 151.881 31.4667 151.053 31.4667H147.607C146.779 31.4667 146.351 31.8941 146.351 32.7758V57.5681C146.351 58.3963 146.779 58.8237 147.607 58.8237H151.053C151.881 58.8237 152.309 58.3963 152.309 57.5681V42.7408C152.309 38.5731 154.339 35.955 157.625 35.955C161.392 35.955 162.808 38.0922 162.808 42.1798V57.6215C162.808 58.2627 163.369 58.8237 164.01 58.8237H167.51C168.258 58.8237 168.766 58.2894 168.766 57.7284V43.2217C168.766 38.7601 170.796 35.955 174.136 35.955C177.342 35.955 178.945 38.0388 178.945 42.1798V57.675C178.945 58.4497 179.319 58.8237 180.093 58.8237H183.647C184.475 58.8237 184.902 58.3963 184.902 57.5681V40.4432C184.902 37.4778 184.181 35.1 182.738 33.2567C181.269 31.44 179.078 30.5316 176.113 30.5316Z" fill="white"/>
<path d="M203.817 30.4782C199.436 30.4782 195.909 31.8941 193.264 34.6993C190.619 37.5045 189.284 40.9775 189.284 45.0918C189.284 49.206 190.7 52.6791 193.558 55.5377C196.39 58.3963 200.077 59.8122 204.645 59.8122C208.492 59.8122 211.671 58.7703 214.183 56.6865C214.771 56.1522 214.851 55.6178 214.397 55.0568L212.687 52.4119C212.286 51.744 211.778 51.6639 211.11 52.1448C209.107 53.6141 206.943 54.3355 204.645 54.3355C202.027 54.3355 199.97 53.721 198.474 52.4654C196.951 51.2097 196.016 49.7136 195.669 47.9771H216.133C217.068 47.9771 217.549 47.4962 217.549 46.5077C217.549 41.6187 216.24 37.7449 213.622 34.8329C210.977 31.9209 207.718 30.4782 203.817 30.4782ZM203.764 35.9015C205.66 35.9015 207.344 36.516 208.813 37.7182C210.282 38.9471 211.164 40.7371 211.484 43.0614H195.348C196.069 38.3861 199.088 35.9015 203.764 35.9015Z" fill="white"/>
<path d="M238.735 31.1995C238.254 31.1995 237.88 31.4667 237.639 32.001L230.853 47.2825L224.682 32.7223C224.308 31.8941 223.8 31.4667 223.133 31.4667H218.377C217.469 31.4667 217.228 31.8941 217.683 32.7223L229.865 58.61C230.052 59.0107 230.426 59.1978 230.934 59.2245C231.441 59.2245 231.789 58.984 232.002 58.5031L238.628 41.966L245.788 58.61C245.975 59.0107 246.322 59.1978 246.83 59.1978C247.31 59.2245 247.684 58.984 247.925 58.5031L259.733 32.6689C260.187 31.8674 259.92 31.4667 258.985 31.4667H254.604C253.936 31.4667 253.428 31.8941 253.081 32.7223L246.83 47.4428L239.83 32.001C239.616 31.4667 239.242 31.1995 238.735 31.1995Z" fill="white"/>
<path d="M273.786 30.4782C269.698 30.4782 266.412 31.7071 263.928 34.1917C263.34 34.6993 263.313 35.2871 263.874 35.9015L265.798 38.1991C266.252 38.7601 266.76 38.8136 267.321 38.3594C269.485 36.6496 271.675 35.7947 273.893 35.7947C278.141 35.7947 280.358 38.0388 280.358 41.7523H274.988C269.511 41.7256 265.718 42.4736 263.607 44.0499C261.497 45.6261 260.428 47.8168 260.428 50.6754C260.428 53.534 261.47 55.7514 263.527 57.3811C265.584 59.0107 268.282 59.8122 271.595 59.8122C275.389 59.8122 278.328 58.3963 280.411 55.5377V57.7818C280.411 58.4764 280.732 58.8237 281.4 58.8237H285.167C285.888 58.8237 286.262 58.423 286.262 57.6215V41.7523C286.262 38.0388 285.087 35.2069 282.736 33.3101C280.385 31.4133 277.393 30.4782 273.786 30.4782ZM272.851 54.5492C268.683 54.5492 266.439 53.0531 266.439 50.4082C266.466 47.7634 268.79 46.4543 273.465 46.4543H280.358C280.358 51.4769 277.66 54.5492 272.851 54.5492Z" fill="white"/>
<path d="M314.661 31.4667C313.886 31.4667 313.325 31.8941 312.978 32.7223L304.108 52.6524L296.067 32.7223C295.693 31.8941 295.132 31.4667 294.357 31.4667H289.949C289.014 31.4667 288.773 31.8941 289.228 32.7223L300.715 59.2512L292.674 74.8533C292.247 75.6814 292.567 76.2158 293.395 76.2158H297.59C298.418 76.2158 299.006 75.8417 299.353 75.067L309.024 54.8965L319.764 32.7223C320.165 31.8941 319.897 31.4667 318.989 31.4667H314.661Z" fill="white"/>
<defs>
<linearGradient id="paint0_linear_2_9334" x1="39.9731" y1="3.44127" x2="39.9731" y2="77.6495" gradientUnits="userSpaceOnUse">
<stop stop-color="white"/>
<stop offset="1" stop-color="white" stop-opacity="0"/>
</linearGradient>
<linearGradient id="paint1_linear_2_9334" x1="17.3652" y1="69.9986" x2="62.8618" y2="11.3734" gradientUnits="userSpaceOnUse">
<stop stop-color="white"/>
<stop offset="1" stop-color="white" stop-opacity="0"/>
</linearGradient>
<linearGradient id="paint2_linear_2_9334" x1="62.8361" y1="69.7686" x2="17.11" y2="11.3222" gradientUnits="userSpaceOnUse">
<stop stop-color="white"/>
<stop offset="1" stop-color="white" stop-opacity="0"/>
</linearGradient>
<linearGradient id="paint3_linear_2_9334" x1="75.5344" y1="29.9567" x2="4.41209" y2="51.1341" gradientUnits="userSpaceOnUse">
<stop stop-color="white"/>
<stop offset="1" stop-color="white" stop-opacity="0"/>
</linearGradient>
<linearGradient id="paint4_linear_2_9334" x1="4.55973" y1="29.4722" x2="75.3863" y2="51.6186" gradientUnits="userSpaceOnUse">
<stop stop-color="white"/>
<stop offset="1" stop-color="white" stop-opacity="0"/>
</linearGradient>
</defs>
</svg>
